<svg xmlns="http://www.w3.org/2000/svg" fill="none" viewBox="0 0 75 15">
  <path fill-rule="evenodd" clip-rule="evenodd" d="M36.758 7.504c0-.992-.84-1.82-1.837-1.82s-1.838.828-1.838 1.82c0 .977.841 1.82 1.838 1.82.996 0 1.837-.843 1.837-1.82zm.794-2.54c.701.69 1.09 1.593 1.09 2.54 0 .947-.389 1.85-1.09 2.54-.7.677-1.635 1.038-2.631 1.038a2.602 2.602 0 01-1.76-.676l-.078-.06v4.026l-1.884.574V4.061h1.884v.541l.078-.075c.561-.526 1.2-.601 1.76-.601.981 0 1.915.36 2.632 1.037zm3.644 2.54c0 .992.841 1.82 1.838 1.82.996 0 1.837-.828 1.837-1.82 0-.977-.84-1.82-1.837-1.82s-1.838.843-1.838 1.82zm-.794 2.54c-.7-.69-1.09-1.593-1.09-2.54 0-.947.39-1.85 1.09-2.54.7-.677 1.635-1.038 2.632-1.038.654 0 1.245.225 1.76.676l.077.06v-.601h1.884v6.886h-1.884v-.541l-.078.075c-.56.526-1.199.601-1.76.601-.98 0-1.915-.36-2.631-1.037zm8.238 4.902l1.698-3.984-2.85-6.901h2.087l1.775 4.285 1.806-4.285h2.071L50.68 14.946h-2.04zM3.645 5.085c-1.373 0-2.49 1.085-2.49 2.42 0 1.333 1.117 2.418 2.49 2.418 1.373 0 2.49-1.085 2.49-2.419s-1.117-2.419-2.49-2.419zm0 5.924a3.74 3.74 0 01-2.583-1.012A3.49 3.49 0 010 7.504 3.49 3.49 0 011.064 5.01 3.74 3.74 0 013.645 4c.986 0 1.817.503 2.34.926l.15.122V4.15h1.156v6.709H6.135V9.96l-.15.122c-.523.423-1.354.927-2.34.927zm5.739-.151V5.205h-1.06V4.15h1.06V2.167C9.384.952 10.383 0 11.658 0h1.454l-.294 1.056H11.69c-.613 0-1.151.533-1.151 1.14V4.15h2.196v1.055h-2.196v5.653H9.384zm7.707 0c-1.254 0-2.274-.985-2.274-2.196V5.205h-1.06V4.15h1.06V0h1.155v4.15h2.196v1.055h-2.196v3.427c0 .613.548 1.17 1.15 1.17h1.13l.293 1.056H17.09zm4.977-5.728c-.893 0-1.722.622-2.064 1.547l-.01.02-.067.129h4.284l-.083-.159c-.32-.915-1.15-1.537-2.06-1.537zm-.002 5.849a3.152 3.152 0 01-2.342-1.023 3.392 3.392 0 01-.943-2.113c-.015-.105-.015-.204-.015-.309 0-.263.03-.53.09-.793a3.497 3.497 0 01.867-1.628 3.232 3.232 0 012.345-1.009c.895 0 1.734.359 2.362 1.01.451.481.75 1.044.865 1.625.09.513.093.832.083.992h-5.503v.119c.16 1.188 1.09 2.087 2.16 2.103.66-.031 1.31-.291 1.76-.7l.963.556a4.058 4.058 0 01-.853.671c-.508.295-1.144.467-1.838.499zm4.446-.121V4.15h1.155v.848l.16-.17c.41-.437 1.614-.793 2.415-.826l-.282 1.114c-1.27.035-2.293.992-2.293 2.163v3.58h-1.155z" fill="#4F4F4F"/>
  <path fill-rule="evenodd" clip-rule="evenodd" d="M65.202 5.963l2.024-1.131c-.224-.38-.17-.288-.373-.645-.216-.38-.135-.528.311-.531 1.298-.009 2.597-.01 3.895-.004.386.002.479.162.285.49a323.631 323.631 0 01-1.946 3.26c-.21.346-.392.345-.611.007-.225-.348-.165-.262-.405-.656l-2.017 1.131c.04.1.09.165.132.235.5.84.723 1.24 1.24 2.07.61.984 1.893 1.043 2.621.134.081-.101.155-.209.222-.32 1.225-2.048 2.45-4.097 3.669-6.15.123-.208.235-.435.288-.667.213-.924-.497-1.798-1.495-1.803a578.064 578.064 0 00-7.877.007c-1.196.01-1.914 1.166-1.389 2.182.171.331.377.645.569.966l.857 1.425z" fill="#306E9A"/>
  <path fill-rule="evenodd" clip-rule="evenodd" d="M59.368 12.293l.004-2.249s-.323-.003-.76-.003c-.444 0-.535-.151-.316-.522a299.54 299.54 0 011.938-3.228c.194-.319.365-.347.577.007.645 1.078 1.291 2.155 1.927 3.237.203.345.111.497-.298.51l-.785-.001V12.3h2.732c1.178-.017 1.87-1.05 1.425-2.106a2.792 2.792 0 00-.174-.342c-1.21-2.036-2.42-4.072-3.637-6.104a2.444 2.444 0 00-.449-.57 1.545 1.545 0 00-2.347.34 533.818 533.818 0 00-3.918 6.528c-.587.995.082 2.167 1.247 2.238.38.023 1.998.01 2.834.01z" fill="#1F4066"/>
</svg>
