<svg xmlns="http://www.w3.org/2000/svg" fill="none" viewBox="0 0 39 18">
  <path d="M19.25 17.75l19-5.75v2.75a3 3 0 01-3 3h-16z" fill="#FD6020"/>
  <path fill-rule="evenodd" clip-rule="evenodd" d="M32.992.139c1.307 0 2.025.604 2.025 1.746.066.873-.522 1.612-1.306 1.746l1.764 2.485h-1.372L32.6 3.698h-.13v2.418h-1.111V.139h1.633zm-.523 2.753h.327c.719 0 1.045-.336 1.045-.94 0-.537-.326-.873-1.045-.873h-.327v1.813zm-4.965 3.224h3.136V5.108h-2.025V3.497h1.96V2.489h-1.96V1.146h2.025V.139h-3.136v5.977zm-3.266-1.948L22.735.138H21.56l2.417 6.112h.588L26.982.14h-1.176l-1.568 4.03zM10.976 3.161c0 1.679 1.306 3.089 2.94 3.089.522 0 .98-.134 1.437-.336V4.571c-.327.403-.784.672-1.307.672-1.045 0-1.894-.806-1.894-1.88v-.135c-.066-1.075.783-2.015 1.829-2.082.522 0 1.045.269 1.372.671V.474C14.96.206 14.438.138 13.98.138c-1.699-.134-3.005 1.277-3.005 3.023zM8.95 2.422c-.653-.269-.849-.403-.849-.739.065-.403.392-.739.784-.671.327 0 .653.201.915.47l.588-.806C9.93.273 9.342.004 8.754.004 7.84-.063 7.056.676 6.99 1.616v.067c0 .806.327 1.276 1.372 1.612.262.067.523.201.784.336a.71.71 0 01.327.604c0 .47-.392.873-.784.873h-.065a1.29 1.29 0 01-1.176-.806l-.719.74c.392.738 1.176 1.14 1.96 1.14 1.045.068 1.895-.738 1.96-1.812v-.202c-.065-.806-.392-1.209-1.699-1.746zM5.161 6.116h1.11V.139h-1.11v5.977zM0 .139h1.96c1.568.067 2.81 1.41 2.744 3.022 0 .873-.392 1.679-1.045 2.283-.588.47-1.307.739-2.026.672H0V.139zm1.437 4.97c.523.067 1.111-.135 1.503-.47.392-.404.588-.94.588-1.545 0-.538-.196-1.075-.588-1.478-.392-.336-.98-.537-1.503-.47h-.326v3.962h.326z" fill="#000"/>
  <path fill-rule="evenodd" clip-rule="evenodd" d="M18.685 0C17.05 0 15.68 1.343 15.68 3.09c0 1.678 1.306 3.089 3.005 3.156 1.698.067 3.005-1.343 3.07-3.09C21.69 1.41 20.383 0 18.685 0z" fill="#FD6020"/>
</svg>
