<svg xmlns="http://www.w3.org/2000/svg" fill="none" viewBox="0 0 77 17">
  <path d="M12.607 1.527l-1.93 1.892c-.134.13-.327 0-.327 0L7.875.952A2.07 2.07 0 006.431.37c-.54 0-1.06.21-1.443.583a1.984 1.984 0 00-.597 1.415c0 .53.215 1.039.597 1.415l4.1 4.02a2.07 2.07 0 001.445.583c.541 0 1.06-.21 1.444-.583l3.432-3.363.6-.605a1.056 1.056 0 01.747-.303 1.073 1.073 0 01.745.303.995.995 0 01.305.717.98.98 0 01-.314.712l-.62.611-6.233 6.111a.257.257 0 01-.29.059.257.257 0 01-.084-.059L3.484 5.341a2.071 2.071 0 00-1.444-.584c-.542 0-1.06.21-1.445.584A1.987 1.987 0 000 6.755c0 .53.214 1.039.595 1.415l8.455 8.285-.044-.038a2.07 2.07 0 001.443.583c.541 0 1.06-.21 1.444-.583l7.871-7.713.083-.082a5.017 5.017 0 001.145-1.628 4.932 4.932 0 00.032-3.878 5.01 5.01 0 00-1.118-1.646 5.13 5.13 0 00-1.68-1.096 5.212 5.212 0 00-3.957.031 5.126 5.126 0 00-1.662 1.122z" fill="#00B1CC"/>
  <path d="M32.418 13.66h-4.513V6.536a.293.293 0 00-.094-.196.304.304 0 00-.412 0 .293.293 0 00-.094.196v7.375a.297.297 0 00.09.206.309.309 0 00.21.088h4.816a.28.28 0 00.196-.08.268.268 0 000-.384.28.28 0 00-.196-.08h-.003zm6.38-7.17a.416.416 0 00-.154-.204.43.43 0 00-.247-.079h-.023a.428.428 0 00-.247.078.414.414 0 00-.154.205l-3.452 7.33a.404.404 0 00-.045.18.26.26 0 00.086.18.27.27 0 00.19.068.31.31 0 00.18-.06.3.3 0 00.11-.154l.945-2.047h4.762l.946 2.03a.34.34 0 00.3.226.289.289 0 00.202-.076.278.278 0 00.087-.194.375.375 0 00-.047-.181L38.798 6.49zm-2.558 4.966l2.141-4.581 2.123 4.58H36.24zM49.6 6.241a.33.33 0 00-.267.17l-2.944 4.128-2.924-4.126a.32.32 0 00-.277-.17.32.32 0 00-.216.087.307.307 0 00-.096.208.369.369 0 00.057.18l3.151 4.355v2.884a.293.293 0 00.095.196.305.305 0 00.411 0 .292.292 0 00.095-.196V11.06l3.127-4.31a.427.427 0 00.092-.226.303.303 0 00-.096-.199.315.315 0 00-.208-.084zm7.814 3.824c.577-.318 1.061-.815 1.061-1.705v-.022a1.784 1.784 0 00-.554-1.347c-.462-.452-1.188-.701-2.111-.701h-2.863a.898.898 0 00-.631.253.864.864 0 00-.258.619v6.175a.85.85 0 00.258.617.882.882 0 00.63.254h2.962c1.823 0 3.023-.724 3.023-2.172v-.023c-.005-1.066-.582-1.598-1.517-1.948zm-3.625-2.252h1.755c.75 0 1.166.294 1.166.815v.022c0 .589-.496.838-1.282.838H53.79V7.813zm3.37 4.004c0 .588-.473.86-1.257.86H53.79v-1.742h2.056c.91 0 1.315.328 1.315.86v.022zm9.833-5.598a.897.897 0 00-.63.253.862.862 0 00-.258.618v3.732c0 1.255-.657 1.9-1.74 1.9-1.082 0-1.739-.667-1.739-1.956V7.095a.864.864 0 00-.272-.595.9.9 0 00-1.234 0 .864.864 0 00-.272.595v3.72c0 2.33 1.329 3.518 3.498 3.518 2.168 0 3.544-1.18 3.544-3.574V7.09a.85.85 0 00-.261-.62.883.883 0 00-.636-.25zm9.141-.012c-.37 0-.634.203-.853.525l-1.997 2.794-1.962-2.776c-.22-.316-.474-.531-.878-.531a.883.883 0 00-.622.237.85.85 0 00-.266.6c.001.225.078.444.219.622l2.609 3.472v2.251c0 .231.094.453.26.616a.898.898 0 001.257 0 .862.862 0 00.26-.616v-2.285l2.609-3.45c.138-.175.219-.389.23-.61a.792.792 0 00-.24-.614.825.825 0 00-.626-.235z" fill="#4F4F4F"/>
</svg>
