<svg xmlns="http://www.w3.org/2000/svg" fill="none" viewBox="0 0 50 17">
  <path d="M23.076 13.89c-.3.011-.59-.107-.796-.325a1.14 1.14 0 01-.3-.808 1.76 1.76 0 01.216-.86c.127-.235.282-.454.461-.652l4.457-5.03H23.23c-.377 0-.646-.13-.794-.386a1.638 1.638 0 01-.207-.843c-.01-.283.071-.563.233-.796a.811.811 0 01.695-.334h6.863c.29-.013.574.093.784.293.195.195.293.47.293.82.008.273-.049.544-.166.79a2.682 2.682 0 01-.42.59L25.87 11.53h4.398a.83.83 0 01.678.323c.172.234.26.52.246.81.013.302-.06.601-.21.864-.15.24-.416.363-.79.363h-7.116zm10.782.133c-1.222 0-1.477-.627-1.477-1.152V5.208c0-.4.121-.724.361-.963s.622-.36 1.137-.36c.433 0 .777.098 1.021.294.245.195.38.51.38.915v7.737c0 .42-.133.73-.395.92-.262.192-.599.272-1.027.272zm0-10.96c-.477 0-.867-.14-1.162-.414-.295-.275-.45-.653-.45-1.118a1.48 1.48 0 01.448-1.098C32.987.146 33.38 0 33.857 0c.395 0 .78.13 1.094.368.343.253.517.645.517 1.166 0 .466-.151.842-.449 1.12-.298.277-.688.411-1.161.411v-.003zm4.608 13.897c-1.142 0-1.384-.637-1.384-1.171V4.949a1.23 1.23 0 01.362-.908c.239-.239.621-.36 1.136-.36.32-.004.637.07.923.213.303.156.461.46.461.898a3.452 3.452 0 01.844-.731 3.51 3.51 0 011.907-.53 4.15 4.15 0 011.867.403 3.81 3.81 0 011.356 1.12 4.92 4.92 0 01.802 1.689 8.06 8.06 0 01.262 2.108 7.294 7.294 0 01-.3 2.14 5.032 5.032 0 01-.88 1.7 4.058 4.058 0 01-1.427 1.118 4.442 4.442 0 01-1.922.403 3.947 3.947 0 01-1.31-.184 3.623 3.623 0 01-.86-.425 2.38 2.38 0 01-.396-.338v2.468c0 .43-.117.746-.349.942-.231.195-.587.284-1.092.284zm3.511-10.974a1.836 1.836 0 00-.903.213 1.97 1.97 0 00-.655.601c-.19.28-.33.592-.41.921a4.675 4.675 0 00-.14 1.169c0 .897.185 1.616.554 2.139.369.522.87.766 1.558.766.688 0 1.19-.262 1.537-.8.348-.54.533-1.257.533-2.105a4.676 4.676 0 00-.144-1.165 2.984 2.984 0 00-.402-.921 1.883 1.883 0 00-.646-.6 1.794 1.794 0 00-.882-.218z" fill="#28356A"/>
  <path d="M16.834 6.369L13.03 9.784H3.612a3.602 3.602 0 00-2.385.899l4.75-4.267.073-.065L12 1.001a3.618 3.618 0 013.535-.748 3.603 3.603 0 011.298 6.111v.005z" fill="#F15C3E"/>
  <path d="M3.614 7.295a3.61 3.61 0 003.613-3.607A3.61 3.61 0 003.614.08 3.61 3.61 0 000 3.688a3.61 3.61 0 003.614 3.607z" fill="#F8991C"/>
  <path d="M3.614 9.784a3.602 3.602 0 00-2.386.899l-.03.028a3.603 3.603 0 00-.27 5.094 3.617 3.617 0 005.102.27l7.003-6.29H3.614z" fill="#28356A"/>
  <path d="M13.026 9.787l-7.004 6.29a3.602 3.602 0 01-2.417.92h10.806c2.085-.033 3.556-1.598 3.556-3.607a3.586 3.586 0 00-3.556-3.607l-1.385.004z" fill="#00AEB8"/>
  <path fill-rule="evenodd" clip-rule="evenodd" d="M47.497 2.757v.753a.08.08 0 01-.022.057c-.014.016-.04.024-.077.024-.068 0-.102-.027-.102-.08v-.754h-.243c-.028 0-.048-.009-.06-.026a.106.106 0 01-.016-.06c0-.023.006-.043.018-.06.012-.018.03-.026.055-.026h.704c.024 0 .042.008.055.026a.1.1 0 01.019.06.106.106 0 01-.018.06c-.011.017-.03.026-.059.026h-.254zm1.312.128l-.227.627a.09.09 0 01-.04.052.133.133 0 01-.065.015.126.126 0 01-.077-.02.135.135 0 01-.04-.059l-.215-.568v.578a.088.088 0 01-.02.057c-.015.016-.04.024-.078.024-.035 0-.06-.007-.074-.02-.014-.014-.02-.035-.02-.065V2.68c0-.036.011-.061.035-.076a.18.18 0 01.098-.023c.042 0 .075.007.097.023a.129.129 0 01.048.067l.246.703.236-.697a.128.128 0 01.055-.074.207.207 0 01.104-.022c.04 0 .072.007.095.022a.075.075 0 01.035.068v.84c0 .021-.007.04-.021.056-.014.016-.04.024-.077.024-.035 0-.059-.008-.073-.022-.015-.015-.022-.037-.022-.064v-.62z" fill="#28356A"/>
</svg>
