<svg xmlns="http://www.w3.org/2000/svg" fill="none" viewBox="0 0 52 14">
  <path d="M6.24 14H2.195a.564.564 0 01-.555-.48L.004 3.04a.34.34 0 01.334-.393h1.93c.278 0 .513.203.556.48l.441 2.826c.043.277.279.48.555.48H5.1c2.665 0 4.202 1.303 4.604 3.884.18 1.13.008 2.016-.516 2.638-.575.682-1.594 1.043-2.948 1.043zm.467-3.828c-.222-1.466-1.33-1.466-2.403-1.466h-.61l.428 2.738a.338.338 0 00.333.287h.28c.73 0 1.42 0 1.775-.42.213-.251.278-.624.197-1.139zm11.623.048h-1.937a.339.339 0 01-.333-.288l-.085-.548-.136.199c-.42.615-1.354.82-2.288.82-2.14 0-3.968-1.638-4.324-3.935-.185-1.146.078-2.242.722-3.006.59-.703 1.434-.995 2.44-.995 1.724 0 2.68 1.12 2.68 1.12l-.086-.544a.34.34 0 01.332-.394h1.745c.277 0 .511.203.555.48l1.047 6.697a.338.338 0 01-.332.393zm-2.7-3.81c-.187-1.117-1.065-1.868-2.185-1.868-.562 0-1.012.183-1.3.528-.287.343-.396.831-.304 1.375.174 1.108 1.067 1.883 2.17 1.883.55 0 .997-.185 1.292-.533.295-.352.412-.843.327-1.384zm13.015 3.81H26.7a.562.562 0 01-.466-.25L23.55 5.975l-1.138 3.84a.565.565 0 01-.54.404H19.96a.34.34 0 01-.32-.45l2.144-6.357L19.768.538A.34.34 0 0120.043 0h1.944a.56.56 0 01.462.244l6.473 9.44a.34.34 0 01-.277.535" fill="#28356A"/>
  <path d="M35.09 14h-4.046a.564.564 0 01-.555-.48L28.853 3.04a.339.339 0 01.333-.393h2.076c.192 0 .357.142.387.336l.465 2.97c.042.277.278.48.555.48h1.28c2.664 0 4.201 1.303 4.603 3.884.182 1.13.008 2.016-.516 2.638-.574.682-1.593 1.043-2.947 1.043zm.466-3.828c-.22-1.466-1.33-1.466-2.403-1.466h-.61l.43 2.738a.337.337 0 00.332.287h.28c.73 0 1.419 0 1.775-.42.212-.251.277-.624.196-1.139zm11.623.048h-1.936a.336.336 0 01-.333-.288l-.085-.548-.136.199c-.42.615-1.354.82-2.287.82-2.14 0-3.968-1.638-4.324-3.935-.184-1.146.078-2.242.721-3.006.591-.703 1.435-.995 2.44-.995 1.724 0 2.68 1.12 2.68 1.12l-.086-.544a.34.34 0 01.334-.394h1.744c.276 0 .511.203.554.48l1.048 6.697a.34.34 0 01-.334.393zm-2.7-3.81c-.186-1.117-1.065-1.868-2.185-1.868-.562 0-1.012.183-1.301.528-.286.343-.394.831-.304 1.375.176 1.108 1.068 1.883 2.17 1.883.55 0 .998-.185 1.292-.533.296-.352.413-.843.328-1.384zm4.983 7.302l-1.66-10.67a.339.339 0 01.332-.394h1.67c.276 0 .512.203.554.48l1.637 10.478a.34.34 0 01-.332.394h-1.869a.339.339 0 01-.332-.288" fill="#2F80ED"/>
</svg>
