<svg xmlns="http://www.w3.org/2000/svg" fill="none" viewBox="0 0 28 17">
  <path d="M16.572 8.382c0 4.63-3.71 8.382-8.286 8.382S0 13.012 0 8.382 3.71 0 8.286 0s8.286 3.753 8.286 8.382z" fill="#ED0006"/>
  <path d="M27.322 8.382c0 4.63-3.71 8.382-8.287 8.382-4.576 0-8.286-3.752-8.286-8.382S14.46 0 19.035 0c4.577 0 8.287 3.753 8.287 8.382z" fill="#2F80ED"/>
  <path fill-rule="evenodd" clip-rule="evenodd" d="M13.66 2.002a8.404 8.404 0 012.912 6.38 8.404 8.404 0 01-2.911 6.38 8.404 8.404 0 01-2.912-6.38 8.404 8.404 0 012.912-6.38z" fill="#6C6BBD"/>
</svg>
