<svg xmlns="http://www.w3.org/2000/svg" fill="none" viewBox="0 0 28 17">
  <path fill-rule="evenodd" clip-rule="evenodd" d="M13.974 14.75c-1.48 1.247-3.4 2-5.498 2C3.795 16.75 0 13 0 8.375S3.795 0 8.476 0c2.098 0 4.018.753 5.498 2 1.48-1.247 3.4-2 5.498-2 4.68 0 8.475 3.75 8.475 8.375s-3.794 8.375-8.475 8.375a8.503 8.503 0 01-5.498-2z" fill="#ED0006"/>
  <path fill-rule="evenodd" clip-rule="evenodd" d="M13.974 14.75a8.316 8.316 0 002.978-6.375 8.316 8.316 0 00-2.978-6.374A8.5 8.5 0 0119.47 0c4.681 0 8.476 3.75 8.476 8.375s-3.794 8.375-8.476 8.375a8.503 8.503 0 01-5.497-2z" fill="#F9A000"/>
  <path fill-rule="evenodd" clip-rule="evenodd" d="M13.974 14.75a8.316 8.316 0 002.978-6.375 8.316 8.316 0 00-2.978-6.374 8.316 8.316 0 00-2.978 6.374 8.316 8.316 0 002.978 6.374z" fill="#FD6020"/>
</svg>
