<svg xmlns="http://www.w3.org/2000/svg" fill="none" viewBox="0 0 16 16">
  <g clip-path="url(#El887mWc2-a)" fill="#2F80ED">
    <path d="M8.667 5a.667.667 0 11-1.334 0 .667.667 0 011.334 0zm-2 2.5a.5.5 0 01.5-.5h1a.5.5 0 01.5.5v2.833h.5a.5.5 0 010 1h-2a.5.5 0 010-1h.5V8h-.5a.5.5 0 01-.5-.5z"/>
    <path fill-rule="evenodd" clip-rule="evenodd" d="M8 .667a7.333 7.333 0 100 14.667A7.333 7.333 0 008 .667zM1.667 8a6.333 6.333 0 1112.666 0A6.333 6.333 0 011.667 8z"/>
  </g>
  <defs>
    <clipPath id="El887mWc2-a">
      <path fill="#fff" d="M0 0h16v16H0z"/>
    </clipPath>
  </defs>
</svg>
